<?xml version="1.0" encoding="utf-8"?>
<!-- Generator: Adobe Illustrator 19.2.1, SVG Export Plug-In . SVG Version: 6.00 Build 0)  -->
<svg version="1.0" id="Layer_1" xmlns="http://www.w3.org/2000/svg" xmlns:xlink="http://www.w3.org/1999/xlink" x="0px" y="0px"
	 viewBox="0 0 44.2 44.5" style="enable-background:new 0 0 44.2 44.5;" xml:space="preserve">
<style type="text/css">
	.st0{fill:#1D70B7;}
	.st1{fill:#FFFFFF;}
</style>
<rect class="st0" width="44.2" height="44.5"/>
<path id="path3" class="st1" d="M34.6,21.1h-6.7h-5.4l-0.2-0.8c-1.6-5.5-4.2-8.6-7.2-8.6c-3.1,0-6,3.4-7.4,9.4
	c-0.2,0.7-0.2,1.6-0.2,2.3h12.1l0.2,0.8c1.6,5.5,4.2,8.6,7.2,8.6c3.2,0,6-3.4,7.4-9.4C34.5,22.7,34.6,21.1,34.6,21.1z M11.1,21.1
	c1.1-3.3,2.5-5.4,3.9-5.4c1.4,0,2.8,2.1,3.9,5.4H11.1z M26.9,28.8c-1.4,0-2.8-2.1-3.9-5.4h4.8h3C29.7,26.7,28.3,28.8,26.9,28.8z"/>
</svg>
