<?xml version="1.0" encoding="utf-8"?>
<!-- Generator: Adobe Illustrator 19.2.1, SVG Export Plug-In . SVG Version: 6.00 Build 0)  -->
<svg version="1.0" id="Layer_1" xmlns="http://www.w3.org/2000/svg" xmlns:xlink="http://www.w3.org/1999/xlink" x="0px" y="0px"
	 viewBox="0 0 44.2 44.5" style="enable-background:new 0 0 44.2 44.5;" xml:space="preserve">
<style type="text/css">
	.st0{fill:#2FAA60;}
	.st1{fill:#006633;}
	.st2{fill:#008D36;}
	.st3{fill:#FFFFFF;}
</style>
<rect class="st0" width="44.2" height="44.5"/>
<g>
	<path class="st1" d="M36.2,19.5h-1c-0.3,0-0.6,0.3-0.6,0.6v2c0,3.6-2.9,6.5-6.5,6.5s-6.5-2.9-6.5-6.5v-2c0-0.3-0.3-0.6-0.6-0.6h-1
		c-0.3,0-0.6,0.3-0.6,0.6v2c0,4.3,3.3,8,7.6,8.6v1.4h-4.5c-0.3,0-0.6,0.3-0.6,0.6v1c0,0.3,0.3,0.6,0.6,0.6h11.1
		c0.3,0,0.6-0.3,0.6-0.6v-1c0-0.3-0.3-0.6-0.6-0.6h-4.5v-1.4c4.2-0.5,7.6-4.3,7.6-8.6v-2C36.7,19.8,36.5,19.5,36.2,19.5z"/>
	<path class="st1" d="M28.1,27.5c2.8,0,5-2.2,5-5V11.2c0-2.8-2.2-5-5-5s-5,2.2-5,5v11.3C23.1,25.3,25.3,27.5,28.1,27.5z"/>
</g>
<g>
	<path class="st2" d="M33.2,20.5h-1c-0.3,0-0.6,0.3-0.6,0.6v2c0,3.6-2.9,6.5-6.5,6.5s-6.5-2.9-6.5-6.5v-2c0-0.3-0.3-0.6-0.6-0.6h-1
		c-0.3,0-0.6,0.3-0.6,0.6v2c0,4.3,3.3,8,7.6,8.6v1.4h-4.5c-0.3,0-0.6,0.3-0.6,0.6v1c0,0.3,0.3,0.6,0.6,0.6h11.1
		c0.3,0,0.6-0.3,0.6-0.6v-1c0-0.3-0.3-0.6-0.6-0.6h-4.5v-1.4c4.2-0.5,7.6-4.3,7.6-8.6v-2C33.7,20.8,33.5,20.5,33.2,20.5z"/>
	<path class="st2" d="M25.1,28.5c2.8,0,5-2.2,5-5V12.2c0-2.8-2.2-5-5-5s-5,2.2-5,5v11.3C20.1,26.3,22.3,28.5,25.1,28.5z"/>
</g>
<g>
	<path class="st3" d="M22.1,29.5c2.8,0,5-2.2,5-5V13.2c0-2.8-2.2-5-5-5s-5,2.2-5,5v11.3C17.1,27.3,19.3,29.5,22.1,29.5z"/>
	<path class="st3" d="M30.2,21.5h-1c-0.3,0-0.6,0.3-0.6,0.6v2c0,3.6-2.9,6.5-6.5,6.5s-6.5-2.9-6.5-6.5v-2c0-0.3-0.3-0.6-0.6-0.6h-1
		c-0.3,0-0.6,0.3-0.6,0.6v2c0,4.3,3.3,8,7.6,8.6v1.4h-4.5c-0.3,0-0.6,0.3-0.6,0.6v1c0,0.3,0.3,0.6,0.6,0.6h11.1
		c0.3,0,0.6-0.3,0.6-0.6v-1c0-0.3-0.3-0.6-0.6-0.6h-4.5v-1.4c4.2-0.5,7.6-4.3,7.6-8.6v-2C30.7,21.8,30.5,21.5,30.2,21.5z"/>
</g>
</svg>
