<?xml version="1.0" encoding="utf-8"?>
<!-- Generator: Adobe Illustrator 21.1.0, SVG Export Plug-In . SVG Version: 6.00 Build 0)  -->
<svg version="1.1" id="Layer_1" xmlns="http://www.w3.org/2000/svg" xmlns:xlink="http://www.w3.org/1999/xlink" x="0px" y="0px"
	 viewBox="0 0 65.1 33" style="enable-background:new 0 0 65.1 33;" xml:space="preserve">
<style type="text/css">
	.st0{fill:#FFFFFF;}
</style>
<g id="text4689-4-0-9-7" transform="translate(-879.34155,-532.08462)">
	<path id="path6698" class="st0" d="M938.5,548.5c0,0.1,0,0.2,0,0.4c0,0.2,0,0.3,0,0.4v0.3c0,0.2-0.1,0.4-0.1,0.6
		c0,0.2,0,0.3-0.1,0.5c0,0.1-0.1,0.3-0.1,0.4c0,0.1,0,0.3-0.1,0.4c-0.1,0.3-0.2,0.6-0.2,0.9c-0.1,0.3-0.2,0.6-0.3,0.8
		c-0.5,1.3-1.2,2.4-2.1,3.2c-0.8,0.9-2,1.5-3.3,2c-0.2,0.1-0.4,0.1-0.6,0.1c-0.2,0-0.4,0.1-0.6,0.1c-0.1,0-0.2,0-0.2,0
		c-0.1,0-0.1,0-0.2,0l-0.9,0.1c-0.1,0-0.2,0-0.4,0c-0.2,0-0.3,0-0.3,0c-0.1,0-0.2,0-0.3,0c-0.1,0-0.1,0-0.2,0h-0.3
		c-0.1,0-0.2-0.1-0.4-0.1c-0.1,0-0.2,0-0.3,0c-0.2-0.1-0.4-0.1-0.5-0.1c-0.2,0-0.3-0.1-0.5-0.1c-0.2-0.1-0.4-0.1-0.5-0.2
		c-0.2-0.1-0.4-0.1-0.5-0.2c-1.1-0.5-2-1.1-2.7-2c-0.7-0.8-1.3-1.8-1.7-2.9c-0.1-0.2-0.2-0.5-0.2-0.8c-0.1-0.3-0.1-0.5-0.2-0.8
		c0-0.1-0.1-0.1-0.1-0.2c0-0.1,0-0.1,0-0.2c0-0.1-0.1-0.3-0.1-0.4s0-0.3-0.1-0.4c0-0.1-0.1-0.1-0.1-0.2c0-0.1,0-0.1,0-0.2v-0.6
		c0-0.1-0.1-0.2-0.1-0.4s0-0.3,0.1-0.4v-0.3l0.1-1c0-0.1,0.1-0.2,0.1-0.3s0-0.2,0.1-0.3c0.1-0.3,0.1-0.6,0.2-0.8
		c0.1-0.3,0.1-0.5,0.2-0.8c0.1-0.3,0.3-0.7,0.4-1c0.1-0.3,0.3-0.6,0.5-0.9c0.5-0.8,1.1-1.5,1.8-2.1c0.7-0.6,1.5-1.1,2.4-1.4
		c0.2-0.1,0.4-0.2,0.6-0.2c0.2-0.1,0.5-0.1,0.7-0.2c0.1,0,0.2-0.1,0.3-0.1c0.1,0,0.2,0,0.3-0.1c0.1,0,0.3,0,0.4,0
		c0.1,0,0.3,0,0.4-0.1c0,0,0.1,0,0.1,0c0.1,0,0.1,0,0.1,0c1.2,0,2.2,0.1,3.1,0.4c0.9,0.3,1.7,0.6,2.3,1.1c0.3,0.2,0.5,0.4,0.8,0.6
		c0.2,0.2,0.5,0.4,0.7,0.7c0.1,0.1,0.1,0.2,0.2,0.2c0.1,0.1,0.1,0.1,0.2,0.2c0.1,0.1,0.2,0.3,0.3,0.5c0.1,0.1,0.2,0.3,0.3,0.4
		c0,0.1,0.1,0.2,0.1,0.2c0,0.1,0.1,0.1,0.1,0.2c0.1,0.1,0.1,0.2,0.2,0.3c0.1,0.3,0.3,0.7,0.4,1c0,0.1,0.1,0.2,0.1,0.3
		c0,0.1,0.1,0.2,0.1,0.3c0.1,0.2,0.1,0.4,0.1,0.6c0.1,0.2,0.1,0.4,0.2,0.6c0,0.1,0.1,0.2,0.1,0.3c0,0.1,0,0.2,0,0.3
		c0,0.1,0.1,0.2,0.1,0.4s0,0.3,0.1,0.4v0.2c0,0.1,0,0.2,0,0.3C938.5,548.3,938.5,548.4,938.5,548.5L938.5,548.5z M936,549.3
		c0-0.1,0.1-0.2,0.1-0.5c0-0.2,0-0.4-0.1-0.5v-0.2c0-0.1,0-0.2,0-0.2c0-0.1,0-0.2,0-0.2c0-0.1-0.1-0.2-0.1-0.2c0-0.1,0-0.2,0-0.3
		c0-0.2-0.1-0.3-0.1-0.5c0-0.2,0-0.3-0.1-0.5c-0.1-0.2-0.2-0.5-0.2-0.7c-0.1-0.2-0.1-0.5-0.2-0.7c-0.3-0.7-0.7-1.4-1.2-2
		c-0.5-0.6-1.1-1-1.8-1.4c-0.4-0.2-0.8-0.3-1.4-0.4c-0.2-0.1-0.5-0.1-0.8-0.1c-0.3,0-0.6,0-0.9,0c-0.1,0-0.2,0-0.4,0.1
		c-0.1,0-0.2,0-0.4,0c-0.3,0.1-0.5,0.1-0.8,0.2c-0.2,0.1-0.5,0.1-0.7,0.2c-1,0.4-1.7,1-2.3,1.8c-0.5,0.8-1,1.7-1.3,2.7
		c-0.1,0.2-0.1,0.4-0.2,0.6c0,0.2-0.1,0.4-0.1,0.6c0,0.1,0,0.2,0,0.3c0,0.1,0,0.2,0,0.2c0,0.1-0.1,0.2-0.1,0.2c0,0.1,0,0.1,0,0.2
		v0.2c0,0.1,0,0.2,0,0.5c0,0.2,0,0.4,0,0.5c0,0.1,0,0.1,0,0.2c0,0.1,0,0.1,0,0.2c0,0.1,0.1,0.3,0.1,0.5c0,0.2,0,0.3,0.1,0.5
		c0,0.1,0,0.1,0,0.2c0,0.1,0,0.1,0.1,0.2c0.1,0.2,0.1,0.4,0.1,0.6c0,0.2,0.1,0.4,0.2,0.6c0.1,0.2,0.2,0.4,0.2,0.6
		c0.1,0.2,0.2,0.4,0.3,0.5c0.1,0.1,0.2,0.3,0.2,0.4c0.1,0.1,0.2,0.3,0.3,0.4c0.5,0.8,1.3,1.4,2.1,1.8c0.2,0.1,0.5,0.2,0.7,0.3
		c0.3,0.1,0.5,0.2,0.8,0.2c0.1,0,0.2,0.1,0.3,0.1c0.1,0,0.2,0,0.3,0c0.1,0,0.2,0.1,0.3,0.1c0.1,0,0.3,0,0.4,0h0.3c0.1,0,0.2,0,0.3,0
		c0.1,0,0.2,0,0.3,0c0.2-0.1,0.5-0.1,0.7-0.1c0.2,0,0.4-0.1,0.6-0.2c0.9-0.4,1.6-0.9,2.2-1.5c0.6-0.6,1.1-1.4,1.4-2.3
		c0.1-0.2,0.2-0.5,0.2-0.7c0.1-0.2,0.1-0.5,0.2-0.7c0-0.1,0.1-0.2,0.1-0.3c0-0.1,0-0.2,0.1-0.4l0.1-0.9L936,549.3L936,549.3z
		 M918.2,557.6c0.1,0.2,0.1,0.4-0.1,0.5c-0.1,0.1-0.2,0.1-0.3,0.1c-0.1,0-0.3,0-0.4,0c-0.3,0-0.6,0-0.8,0c-0.3,0-0.5-0.1-0.7-0.2
		c-0.1-0.1-0.2-0.2-0.3-0.4c0-0.2-0.1-0.4-0.1-0.6c0-0.1,0-0.1,0-0.2c0-0.1,0-0.1,0-0.2c0-0.1,0-0.2,0-0.2c0-0.1,0-0.1,0-0.2
		c0-0.1,0-0.2,0-0.3s0-0.2,0-0.3l-0.1-1.2c0-0.1-0.1-0.2-0.1-0.4c0-0.1,0-0.3-0.1-0.4c-0.1-0.3-0.2-0.6-0.2-1c0-0.3-0.1-0.6-0.2-0.9
		c-0.3-0.7-0.9-1.2-1.7-1.5c-0.2-0.1-0.5-0.1-0.8-0.1c-0.3,0-0.5,0-0.8,0h-4.9c-0.1,0-0.2,0.1-0.3,0.1c-0.1,0-0.2,0.1-0.2,0.2
		c-0.1,0.2-0.2,0.5-0.2,0.9c0,0.4,0,0.7,0,1v3.8c0,0.2,0,0.6,0,0.9c0,0.4,0,0.6-0.1,0.8c0,0.1-0.1,0.2-0.2,0.2
		c-0.1,0-0.1,0.1-0.2,0.1c-0.1,0-0.1,0-0.2,0.1c-0.1,0-0.2,0-0.2,0c-0.1,0-0.2,0-0.3,0c-0.2,0-0.4,0-0.6,0c-0.2,0-0.3-0.1-0.5-0.2
		c-0.1-0.1-0.2-0.2-0.2-0.5c0-0.2,0-0.5,0-0.7v-16.1c0-0.2,0-0.4,0-0.6c0-0.2,0-0.4,0.1-0.5c0.1-0.1,0.2-0.2,0.4-0.3
		c0,0,0.1,0,0.1,0c0,0,0.1,0,0.1,0h7.7c0.1,0,0.3,0,0.4,0c0.1,0,0.3,0,0.4,0h0.3c0.1,0,0.2,0,0.3,0.1c0.1,0,0.2,0,0.3,0
		c0.1,0,0.3,0.1,0.4,0.1c0.2,0,0.3,0,0.5,0.1c0.3,0.1,0.6,0.2,0.9,0.3s0.5,0.3,0.8,0.5c0.4,0.3,0.8,0.7,1.1,1.1
		c0.3,0.4,0.5,0.9,0.7,1.5c0,0.1,0.1,0.3,0.1,0.5c0,0.1,0,0.3,0.1,0.4v0.3c0,0.1,0,0.2,0,0.3c0,0.1,0,0.2,0,0.3v0.3
		c0,0.1-0.1,0.3-0.1,0.4c0,0.1,0,0.2-0.1,0.4c-0.1,0.3-0.2,0.5-0.3,0.8c-0.1,0.2-0.2,0.5-0.3,0.7c-0.1,0.1-0.1,0.2-0.2,0.2
		c-0.1,0.1-0.1,0.2-0.2,0.2c0,0,0,0-0.1,0.1c0,0,0,0-0.1,0c0,0-0.1,0.1-0.1,0.1c0,0.1-0.1,0.1-0.1,0.1c-0.1,0.1-0.3,0.2-0.4,0.3
		c-0.1,0.1-0.3,0.2-0.4,0.3c-0.1,0.1-0.2,0.1-0.2,0.2c-0.1,0.1-0.1,0.1-0.1,0.2c0,0.1,0,0.2,0.1,0.3c0.1,0.1,0.2,0.1,0.3,0.2
		c0.2,0.1,0.4,0.3,0.5,0.4c0.2,0.1,0.3,0.3,0.5,0.5c0.2,0.2,0.3,0.5,0.4,0.8c0.1,0.3,0.2,0.6,0.3,1c0,0.1,0,0.3,0.1,0.4
		c0,0.1,0,0.3,0.1,0.4c0,0.1,0,0.2,0,0.4c0,0.1,0,0.2,0,0.4v0.2c0,0.1,0,0.3,0,0.4c0,0.1,0,0.3,0,0.4c0,0.1,0,0.1,0,0.2
		c0,0.1,0,0.1,0,0.2c0,0.2,0.1,0.4,0.1,0.6c0,0.2,0.1,0.3,0.1,0.5c0,0.1,0.1,0.2,0.1,0.3c0,0.1,0,0.2,0.1,0.3L918.2,557.6
		L918.2,557.6z M915,546.6c0.1-0.2,0.2-0.4,0.3-0.6c0.1-0.2,0.1-0.4,0.2-0.7v-0.2c0.1-0.2,0.1-0.5,0-0.8c0-0.3-0.1-0.5-0.2-0.7
		c-0.3-0.9-0.8-1.5-1.7-1.8c-0.4-0.1-0.8-0.2-1.2-0.2c-0.5,0-0.9,0-1.4,0h-4.4c0,0-0.1,0-0.1,0c0,0-0.1,0-0.1,0
		c-0.2,0.1-0.4,0.2-0.4,0.3c-0.1,0.2-0.1,0.4-0.1,0.7c0,0.3,0,0.5,0,0.8v3.1c0,0.3,0,0.5,0,0.8c0,0.3,0.1,0.5,0.2,0.7
		c0.1,0.1,0.2,0.2,0.4,0.2c0.2,0,0.4,0,0.6,0h1.6c0.7,0,1.4,0,2,0c0.7,0,1.3,0,1.8-0.1c0.6-0.1,1.1-0.2,1.5-0.5
		C914.3,547.4,914.7,547.1,915,546.6L915,546.6z M900.2,544.4c0,0.1,0.1,0.3,0.1,0.6c0,0.2,0,0.4-0.1,0.5c0,0.1,0,0.2,0,0.3
		c0,0.1,0,0.2,0,0.3c0,0.1-0.1,0.2-0.1,0.3c0,0.1,0,0.2-0.1,0.3c0,0.1-0.1,0.3-0.1,0.4c0,0.1-0.1,0.2-0.1,0.4c0,0.1-0.1,0.1-0.1,0.2
		c0,0,0,0.1-0.1,0.1c-0.2,0.4-0.4,0.7-0.6,1c0,0.1-0.1,0.1-0.2,0.2c-0.1,0.1-0.1,0.1-0.2,0.2c-0.1,0-0.1,0.1-0.2,0.2
		c-0.1,0.1-0.1,0.1-0.2,0.1l-0.6,0.3c-0.2,0.1-0.4,0.2-0.7,0.3c-0.3,0.1-0.5,0.1-0.8,0.2c-0.1,0-0.3,0.1-0.4,0.1
		c-0.1,0-0.3,0-0.4,0.1c-0.1,0-0.1,0-0.2,0c-0.1,0-0.1,0-0.2,0c-0.1,0-0.2,0-0.3,0c-0.1,0-0.2,0-0.2,0h-4c-0.3,0-0.6,0-0.9,0
		c-0.3,0-0.5,0-0.7,0.2c-0.2,0.1-0.3,0.4-0.3,0.8c0,0.4,0,0.7,0,1v3.9c0,0.2,0,0.5,0,0.9c0,0.3,0,0.6-0.1,0.7
		c-0.1,0.1-0.2,0.2-0.3,0.2c-0.1,0-0.2,0-0.3,0.1h-0.5c-0.3,0-0.5,0-0.7,0c-0.2,0-0.4-0.1-0.5-0.3c-0.1-0.1-0.1-0.2-0.1-0.4
		c0-0.2,0-0.4,0-0.6v-16.1c0-0.2,0-0.4,0-0.6c0-0.2,0-0.4,0.1-0.6c0.1-0.1,0.2-0.2,0.4-0.3c0,0,0.1,0,0.1,0c0,0,0.1,0,0.1,0h6
		c0.7,0,1.3,0,2,0c0.7,0,1.2,0.1,1.8,0.2c0.8,0.3,1.4,0.6,1.9,1c0.5,0.4,0.9,1,1.2,1.8c0.1,0.2,0.2,0.4,0.2,0.6
		c0.1,0.2,0.1,0.4,0.2,0.7c0,0.1,0,0.2,0,0.3C900.1,544.2,900.1,544.3,900.2,544.4L900.2,544.4z M897.7,545.4c0.1-0.2,0.1-0.5,0-0.8
		c-0.1-0.3-0.1-0.6-0.2-0.8c-0.2-0.5-0.4-0.9-0.7-1.2c-0.3-0.3-0.7-0.5-1.1-0.7c-0.4-0.2-0.8-0.3-1.4-0.3c-0.5,0-1-0.1-1.6-0.1h-3.4
		c0,0-0.1,0-0.1,0c0,0-0.1,0-0.1,0c-0.2,0.1-0.4,0.2-0.4,0.3s-0.1,0.4-0.1,0.7c0,0.3,0,0.5,0,0.8v3.2c0,0.3,0,0.6,0,0.9
		c0,0.3,0.1,0.6,0.2,0.7c0.1,0.1,0.2,0.2,0.4,0.3c0.2,0,0.4,0,0.6,0h3.6c0.3,0,0.5,0,0.8,0c0.3,0,0.5-0.1,0.7-0.1
		c0.5-0.1,0.9-0.3,1.2-0.4c0.4-0.2,0.7-0.4,0.9-0.8c0.1-0.2,0.2-0.4,0.3-0.7c0.1-0.2,0.2-0.5,0.2-0.8
		C897.6,545.7,897.7,545.5,897.7,545.4L897.7,545.4z M879.3,532.1v8.5v8v8c0,4.7,3.8,8.5,8.5,8.5h24.1H936h8.5v-8.5v-8v-8
		c0-4.7-3.8-8.5-8.5-8.5h-24.1h-24.1H879.3z"/>
</g>
</svg>
